# AST/ASF file generated using VICON BodyLanguage
# -----------------------------------------------
:version 1.10
:name VICON
:units
  mass 1.0
  length 0.45
  angle deg
:documentation
   .ast/.asf automatically generated from VICON data using
   VICON BodyBuilder and BodyLanguage model FoxedUp or BRILLIANT.MOD
:root
   order TX TY TZ RX RY RZ
   axis XYZ
   position 0 0 0  
   orientation 0 0 0 
:bonedata
  begin
     id 1 
     name lhipjoint
     direction 0.558404 -0.748506 0.357664 
     length 2.4234 
     axis 0 0 0  XYZ
  end
  begin
     id 2 
     name lfemur
     direction 0.34202 -0.939693 0  
     length 7.14567  
     axis 0 0 20  XYZ
    dof rx ry rz
    limits (-160.0 20.0)
           (-70.0 70.0)
           (-60.0 70.0)
  end
  begin
     id 3 
     name ltibia
     direction 0.34202 -0.939693 0   
     length 8.13956   
     axis 0 0 20   XYZ
    dof rx
    limits (-10.0 170.0)
  end
  begin
     id 4 
     name lfoot
     direction 0.0791314 -0.217412 0.972867   
     length 2.00134   
     axis -90 7.62852e-016 20   XYZ
    dof rx rz
    limits (-45.0 90.0)
           (-70.0 20.0)
  end
  begin
     id 5 
     name ltoes
     direction 1.53547e-011 -4.21922e-011 1   
     length 1.00735   
     axis -90 7.62852e-016 20   XYZ
    dof rx
    limits (-90.0 20.0)
  end
  begin
     id 6 
     name rhipjoint
     direction -0.496392 -0.78327 0.374276   
     length 2.31584  
     axis 0 0 0  XYZ 
  end
  begin
     id 7 
     name rfemur
     direction -0.34202 -0.939693 0   
     length 7.47417   
     axis 0 0 -20   XYZ
    dof rx ry rz
    limits (-160.0 20.0)
           (-70.0 70.0)
           (-70.0 60.0)
  end
  begin
     id 8 
     name rtibia
     direction -0.34202 -0.939693 0   
     length 7.69071   
     axis 0 0 -20   XYZ
    dof rx
    limits (-10.0 170.0)
 end
 begin
     id 9 
     name rfoot
     direction -0.103069 -0.28318 0.953512   
     length 2.16135  
     axis -90 -7.62852e-016 -20   XYZ
    dof rx rz
    limits (-45.0 90.0)
           (-20.0 70.0)
  end
  begin
     id 10 
     name rtoes
     direction -1.53581e-011 -4.21904e-011 1   
     length 1.07867   
     axis -90 -7.62852e-016 -20   XYZ
    dof rx
    limits (-90.0 20.0)
  end
  begin
     id 11 
     name lowerback
     direction -0.0258961 0.994776 -0.0987407   
     length 2.19412   
     axis 0 0 0   XYZ
    dof rx ry rz
    limits (-20.0 45.0)
           (-30.0 30.0)
           (-30.0 30.0)
  end
  begin
     id 12 
     name upperback
     direction 0.0402454 0.999185 0.00320666   
     length 2.18445   
     axis 0 0 0   XYZ
    dof rx ry rz
    limits (-20.0 45.0)
           (-30.0 30.0)
           (-30.0 30.0)
  end
  begin
     id 13 
     name thorax
     direction 0.0519376 0.997415 0.0496558   
     length 2.21487   
     axis 0 0 0   XYZ
    dof rx ry rz
    limits (-20.0 45.0)
           (-30.0 30.0)
           (-30.0 30.0)
  end
  begin
     id 14 
     name lowerneck
     direction -0.0921276 0.983211 0.157506   
     length 1.61201   
     axis 0 0 0   XYZ
    dof rx ry rz
    limits (-20.0 45.0)
           (-30.0 30.0)
           (-30.0 30.0)
  end
  begin
     id 15 
     name upperneck
     direction 0.0820814 0.98162 -0.172292   
     length 1.65275   
     axis 0 0 0   XYZ
    dof rx ry rz
    limits (-20.0 45.0)
           (-30.0 30.0)
           (-30.0 30.0)
  end
  begin
     id 16
     name head
     direction 0.0336554 0.996413 -0.0776455  
     length 1.66415  
     axis 0 0 0   XYZ
    dof rx ry rz
    limits (-20.0 45.0)
           (-30.0 30.0)
           (-30.0 30.0)
  end
  begin
     id 17 
     name lclavicle
     direction 0.94696 0.284418 -0.149576  
     length 3.41447  
     axis 0 0 0   XYZ
    dof ry rz
    limits (-20.0 10.0)
           (0.0 20.0)
  end
  begin
     id 18 
     name lhumerus
     direction 1 -0.000130264 -9.81312e-005   
     length 5.19964   
     axis 180 -30 -90   XYZ
    dof rx ry rz
    limits (-60.0 90.0)
           (-90.0 90.0)
           (-90.0 90.0)
  end
  begin
     id 19
     name lradius
     direction 1 -4.48961e-011 1.43854e-026   
     length 3.32189   
     axis 180 -30 -90   XYZ
    dof rx
    limits (-10.0 170.0)
  end
  begin
     id 20
     name lwrist
     direction 1 -4.48958e-011 3.1502e-026   
     length 1.66095   
     axis -1.97692e-014 90 90   XYZ
    dof ry
    limits (-180.0 0.0)
 end
  begin
     id 21 
     name lhand
     direction 1 -4.48927e-011 6.3004e-026   
     length 0.645616   
     axis -4.02019e-014 90 90   XYZ
    dof rx rz
    limits (-90.0 90.0)
           (-45.0 45.0)
  end
  begin
     id 22 
     name lfingers
     direction 1 -4.4904e-011 1.26008e-025   
     length 0.520512   
     axis -8.04039e-014 90 90   XYZ
    dof rx
    limits (0.0 90.0)
  end
  begin
     id 23
     name lthumb
     direction 0.707107 -6.34947e-011 0.707107   
     length 0.747354   
     axis -90 45 2.85299e-015   XYZ
    dof rx rz
    limits (-45.0 45.0)
           (-45.0 45.0)
  end
  begin
     id 24 
     name rclavicle
     direction -0.909391 0.383475 -0.161107   
     length 3.25176  
     axis 0 0 0   XYZ 
    dof ry rz
    limits (-10.0 20.0)
           (-20.0 0.0)
  end
  begin
     id 25 
     name rhumerus
     direction -1 -4.48965e-011 -1.81384e-027  
     length 5.6595   
     axis 180 30 90   XYZ
    dof rx ry rz
    limits (-90.0 60.0)
           (-90.0 90.0)
           (-90.0 90.0)
  end
  begin
     id 26 
     name rradius
     direction -1 -4.48996e-011 -8.09397e-027   
     length 3.37604   
     axis 180 30 90   XYZ
    dof rx
    limits (-10.0 170.0)
  end
  begin
     id 27 
     name rwrist
     direction -1 -4.48927e-011 -1.56669e-026   
     length 1.68802   
     axis 1.21142e-014 -90 -90   XYZ
    dof ry
    limits (-180.0 0.0)
  end
  begin
     id 28
     name rhand
     direction -1 -4.48912e-011 -3.13339e-026   
     length 0.824702   
     axis 1.99937e-014 -90 -90   XYZ
    dof rx rz
    limits (-90.0 90.0)
           (-45.0 45.0)
  end
  begin
     id 29
     name rfingers
     direction -1 -4.49011e-011 -6.26677e-026   
     length 0.664896   
     axis 3.99874e-014 -90 -90   XYZ
    dof rx
    limits (0.0 90.0)
  end
  begin
     id 30
     name rthumb
     direction -0.707107 -6.34931e-011 0.707107   
     length 0.954662   
     axis -90 -45 -2.85299e-015   XYZ
    dof rx rz
    limits (-45.0 45.0)
           (-45.0 45.0)
  end
:hierarchy
  begin
    root lhipjoint rhipjoint lowerback
    lhipjoint lfemur
    lfemur ltibia
    ltibia lfoot
    lfoot ltoes
    rhipjoint rfemur
    rfemur rtibia
    rtibia rfoot
    rfoot rtoes
    lowerback upperback
    upperback thorax
    thorax lowerneck lclavicle rclavicle
    lowerneck upperneck
    upperneck head
    lclavicle lhumerus
    lhumerus lradius
    lradius lwrist
    lwrist lhand lthumb
    lhand lfingers
    rclavicle rhumerus
    rhumerus rradius
    rradius rwrist
    rwrist rhand rthumb
    rhand rfingers
  end

#!OML:ASF F:\VICON\USERDATA\INSTALL\rory3\rory3.ASF
:FULLY-SPECIFIED
:DEGREES
63
root 11.7623 17.7451 -38.5232 7.16265 -18.3765 0.176612
lowerback 3.53292 -1.54422 -5.66589
upperback -4.23958 -2.25272 3.71736
thorax -6.06862 -0.768976 7.31627
lowerneck -8.38393 -9.8854 -18.3012
upperneck 15.5682 -12.8793 11.4785
head 8.15067 -6.38561 5.38088
rclavicle 2.48574e-014 -2.54444e-014
rhumerus -36.2351 -13.2677 -74.6924
rradius 29.8689
rwrist -12.1621
rhand -13.7175 17.7375
rfingers 7.12502
rthumb 12.4015 -11.8747
lclavicle 2.48574e-014 -2.54444e-014
lhumerus -33.1756 9.79372 89.2731
lradius 25.4822
lwrist -9.39842
lhand -3.28164 34.5871
lfingers 7.12502
lthumb 22.4436 63.3031
rfemur -18.6527 2.98847 23.5287
rtibia 41.6699
rfoot -27.5536 -11.0056
rtoes 24.3638
lfemur -17.3788 -2.93077 -20.3339
ltibia 39.0939
lfoot -24.9131 9.23116
ltoes 3.70889
64
root 11.7612 17.7373 -38.5086 7.02518 -18.6308 0.224227
lowerback 3.7675 -1.4683 -5.87069
upperback -4.33626 -2.16823 3.87827
thorax -6.3123 -0.699357 7.61781
lowerneck -8.64284 -9.64764 -18.4387
upperneck 15.9802 -12.4856 11.3381
head 8.27112 -6.21413 5.40359
rclavicle 4.55722e-014 2.46493e-014
rhumerus -36.5228 -12.6289 -74.4867
rradius 30.0428
rwrist -12.4942
rhand -13.8915 17.5384
rfingers 7.12502
rthumb 12.2337 -12.0838
lclavicle 4.55722e-014 2.46493e-014
lhumerus -33.497 10.0475 89.4542
lradius 25.5458
lwrist -9.69703
lhand -3.46723 33.619
lfingers 7.12502
lthumb 22.2655 62.3564
rfemur -18.5613 3.02407 23.4204
rtibia 41.8606
rfoot -27.6145 -10.7341
rtoes 24.585
lfemur -17.2536 -2.90469 -20.4567
ltibia 39.2649
lfoot -24.1647 10.8061
ltoes -7.19923
65
root 11.7563 17.7277 -38.5165 7.02273 -18.391 0.332213
lowerback 3.71535 -1.52447 -5.85864
upperback -4.23586 -2.24417 3.78345
thorax -6.16441 -0.749665 7.50712
lowerneck -8.83193 -9.49349 -18.4127
upperneck 16.0649 -12.2924 11.5763
head 8.31544 -6.0976 5.50505
rclavicle -1.48064e-014 7.15625e-015
rhumerus -36.3157 -12.7217 -74.6189
rradius 29.996
rwrist -12.5669
rhand -14.0001 17.543
rfingers 7.12502
rthumb 12.129 -12.0854
lclavicle -1.48064e-014 7.15625e-015
lhumerus -33.2493 9.85038 89.4464
lradius 25.5398
lwrist -9.69324
lhand -3.46424 33.3705
lfingers 7.12502
lthumb 22.2684 62.1075
rfemur -18.6885 2.86178 23.3612
rtibia 42.0445
rfoot -27.8448 -10.662
rtoes 25.0136
lfemur -17.4456 -2.80793 -20.4936
ltibia 39.4573
lfoot -24.9049 9.16085
ltoes 2.93612
66
root 11.7527 17.7162 -38.5264 6.97053 -18.1348 0.407879
lowerback 3.82521 -1.59699 -5.84583
upperback -4.13135 -2.34774 3.72438
thorax -6.10024 -0.808909 7.44462
lowerneck -9.74153 -9.45623 -18.2762
upperneck 16.6919 -12.154 11.6056
head 8.65941 -5.99574 5.48556
rclavicle -5.74985e-014 4.77083e-015
rhumerus -36.0608 -12.922 -74.6728
rradius 29.8425
rwrist -12.4406
rhand -13.9687 17.6768
rfingers 7.12502
rthumb 12.1593 -11.9499
lclavicle -5.74985e-014 4.77083e-015
lhumerus -33.0009 9.84785 89.3939
lradius 25.4527
lwrist -10.0165
lhand -3.07196 33.3901
lfingers 7.12502
lthumb 22.6449 62.0817
rfemur -18.7575 2.72779 23.3488
rtibia 42.2081
rfoot -28.0497 -10.6213
rtoes 25.7908
lfemur -17.5959 -2.82262 -20.4962
ltibia 39.6745
lfoot -24.8916 9.10947
ltoes 1.57987
67
root 11.7499 17.7047 -38.5324 6.87785 -17.9539 0.495222
lowerback 3.88574 -1.65665 -5.8074
upperback -4.0027 -2.43032 3.65059
thorax -5.98705 -0.862061 7.34658
lowerneck -9.72326 -9.27027 -18.1667
upperneck 16.6625 -11.9191 11.6414
head 8.60231 -5.8763 5.51773
rclavicle -3.27373e-014 1.90833e-014
rhumerus -35.8954 -13.0286 -74.7831
rradius 29.8648
rwrist -12.5444
rhand -13.762 17.5833
rfingers 7.12502
rthumb 12.3585 -12.0314
lclavicle -3.27373e-014 1.90833e-014
lhumerus -32.7691 9.99115 89.2702
lradius 25.2212
lwrist -10.7171
lhand -3.04749 32.7292
lfingers 7.12502
lthumb 22.6684 61.4179
rfemur -18.7593 2.63024 23.3078
rtibia 42.3457
rfoot -28.0854 -10.6401
rtoes 26.091
lfemur -17.7025 -2.91363 -20.5372
ltibia 39.9304
lfoot -24.9722 8.72006
ltoes 3.1335
68
root 11.7467 17.692 -38.5257 6.79463 -18.0527 0.346475
lowerback 3.79893 -1.63166 -5.5181
upperback -3.79935 -2.37322 3.60575
thorax -5.73976 -0.863788 7.11478
lowerneck -9.89631 -9.13592 -17.8971
upperneck 16.6073 -11.717 11.5324
head 8.55689 -5.76626 5.46079
rclavicle -2.30963e-014 -7.15625e-015
rhumerus -35.6745 -13.1186 -75.0065
rradius 29.9015
rwrist -12.6261
rhand -13.5769 17.4544
rfingers 7.12502
rthumb 12.5371 -12.1495
lclavicle -2.30963e-014 -7.15625e-015
lhumerus -32.4857 10.1473 89.1109
lradius 25.0024
lwrist -11.1743
lhand -3.14568 32.3448
lfingers 7.12502
lthumb 22.5741 61.045
rfemur -18.649 2.65561 23.457
rtibia 42.4573
rfoot -28.1513 -10.6
rtoes 25.6151
lfemur -17.6592 -2.8274 -20.407
ltibia 40.2022
lfoot -24.5526 10.1574
ltoes -7.39318
69
root 11.7426 17.6789 -38.509 6.68593 -18.3861 0.0847922
lowerback 3.75407 -1.53354 -5.20175
upperback -3.57962 -2.21659 3.61518
thorax -5.51432 -0.814019 6.92095
lowerneck -10.1658 -8.97918 -17.5713
upperneck 16.4424 -11.4745 11.4566
head 8.48487 -5.62633 5.40813
rclavicle -5.22307e-014 -8.74653e-015
rhumerus -35.4934 -13.1197 -75.2051
rradius 29.9337
rwrist -12.4963
rhand -13.6093 17.4467
rfingers 7.12502
rthumb 12.5058 -12.1591
lclavicle -5.22307e-014 -8.74653e-015
lhumerus -32.2528 10.1511 89.0583
lradius 24.9091
lwrist -11.1772
lhand -3.22495 32.5178
lfingers 7.12502
lthumb 22.4981 61.2272
rfemur -18.4452 2.81526 23.6918
rtibia 42.5624
rfoot -28.2656 -10.4559
rtoes 25.2698
lfemur -17.504 -2.56795 -20.2021
ltibia 40.4815
lfoot -25.5497 8.70477
ltoes 3.89739
70
root 11.7367 17.6676 -38.5005 6.5691 -18.463 0.114673
lowerback 3.90848 -1.46549 -5.20492
upperback -3.5111 -2.13294 3.57624
thorax -5.54453 -0.773354 6.8794
lowerneck -10.6452 -8.84616 -17.1759
upperneck 16.6214 -11.2334 11.1833
head 8.55132 -5.49558 5.27088
rclavicle 9.60254e-014 -1.03368e-014
rhumerus -35.593 -12.9743 -75.2835
rradius 30.1131
rwrist -12.6469
rhand -13.6736 17.4635
rfingers 7.12502
rthumb 12.4438 -12.1461
lclavicle 9.60254e-014 -1.03368e-014
lhumerus -32.1837 9.92745 89.1282
lradius 24.8655
lwrist -11.1614
lhand -3.49715 32.3801
lfingers 7.12502
lthumb 22.2368 61.1209
rfemur -18.3323 2.88213 23.6622
rtibia 42.6516
rfoot -28.3646 -10.3183
rtoes 25.7161
lfemur -17.4912 -2.33292 -20.2261
ltibia 40.75
lfoot -24.5458 10.0574
ltoes -7.16119
